<svg xmlns="http://www.w3.org/2000/svg" viewBox="0 0 60 60">
  <path fill="none" stroke="#b1b1b1" stroke-width="2" d="M17.72 2.93c-3.72 0-7.68.28-10.89 3.41-3.2 3.13-3.65 7.88-3.65 10.33v25.46c0 2.66-.03 7.85 3.28 10.98 3.3 3.14 6.13 3.82 11.82 3.82H42.9c3.73 0 6.38-.24 9.34-2.3 2.97-2.07 4.93-5.71 4.93-10.88v-26.8c0-4.28-.58-7.51-3.38-10.4-2.79-2.9-6.4-3.62-10.1-3.62H17.73z"/>
  <path fill="#b1b1b1" d="M23.06 24.78c.65 0 .65.78.65 1.15v16.2c0 .53-.13.89-.92.89h-3.74c-.68 0-.92-.6-.92-1.7v-15.4c.02-.76.31-1.14.86-1.14h4.07zm14.12-.38c3.84 0 6.03 1.77 6.5 4 .32 1.47.48 3.57.48 6.28v7.17c0 .66-.2 1.16-.7 1.16h-3.83c-.65 0-1.3-.14-1.3-1.16v-9.12c0-.98-.56-3.33-3-3.33-2.46 0-3.12 3.05-3.12 3.68v8.67c0 .72-.03 1.26-.83 1.26h-3.91c-.57 0-.98-.14-.98-1.26V25.8c-.02-.67.25-1 .8-1h4.09c.65 0 .83.61.83 1v1.28c.75-1.78 2.4-2.68 4.97-2.68zm-16.13-8.54a3.64 3.64 0 110 7.29 3.64 3.64 0 010-7.29z"/>
</svg>
