<svg xmlns="http://www.w3.org/2000/svg" viewBox="0 0 3090 960">
  <path fill="#35383c" d="M1663 667h90V337h-90zm90-455h-90v73h90zm74 455h90V475c0-64 44-75 62-75 57 0 55 43 55 82v185h90V483c0-41 10-83 61-83s55 36 55 80v187h91V446c0-85-51-118-121-118a120 120 0 00-99 55 98 98 0 00-97-55 119 119 0 00-100 54h-1v-45h-86zm595 0h90V397h63v-60h-63v-19c0-28 11-38 35-38a300 300 0 0133 2v-68l-49-2c-74 0-111 42-111 100v24h-52v61h54zm501-330h-90v172c0 67-21 94-70 94-42 0-58-27-58-81V337h-91v203c0 82 25 136 121 136a117 117 0 00100-55h2v46h86V337zm72 330h91V212h-91zM1357 218h101l168 449h-102l-34-100h-168l-35 100h-100zm-9 275h116l-57-164h-1zM147 140a462 462 0 00640 667l150 139V467a462 462 0 00-790-327z"/>
  <circle cx="470" cy="463" r="316" fill="#fff"/>
  <circle cx="470" cy="463" r="157" fill="#e33e11"/>
</svg>
